<svg width="51" height="38" viewBox="0 0 51 38" fill="none" xmlns="http://www.w3.org/2000/svg">
<path d="M19.3077 26.6394C19.5339 26.8343 19.6992 26.9126 20.0842 27.0158C21.8756 27.4918 25.492 26.5539 27.7106 25.0391C29.6515 23.7164 30.8627 21.9618 30.7816 20.59C30.7703 20.4007 30.7726 20.3993 30.8722 20.3418C30.9267 20.3104 31.8693 19.7377 32.9652 19.0639C35.1622 17.7196 35.1646 17.7183 37.2949 16.6526C39.6 15.4955 43.2064 13.7578 44.8949 12.9883C46.4437 12.2836 48.0295 11.4787 48.5127 11.1555C49.1313 10.7383 49.4679 10.2817 49.5281 9.77302C49.5538 9.52753 49.5492 9.41012 49.4986 9.15818C49.4413 8.87844 49.2074 8.47323 48.9978 8.29089C48.4224 7.79218 47.6595 7.8061 46.7354 8.33966C46.5956 8.42038 46.1485 8.71322 45.7388 8.99402C45.3314 9.27346 43.5523 10.4933 41.7837 11.704C40.0165 12.917 38.2384 14.1332 37.8334 14.4113C37.1483 14.8827 36.6804 15.216 35.6293 15.9839C34.4057 16.88 33.7749 17.2758 32.8487 17.7347C31.8808 18.2145 31.1976 18.5742 30.6052 18.9162L30.0696 19.2254L29.8539 19.1035C28.7382 18.4681 26.9827 18.5685 25.0002 19.3814C24.572 19.5591 23.3404 20.2607 22.9199 20.5666C20.6642 22.2197 19.0252 24.3223 18.9406 25.6697C18.9162 26.0598 19.0518 26.4207 19.3077 26.6394Z" fill="white"/>
<path d="M41.2578 17.5035H1.55626C2.25733 27.3852 10.8769 35.1935 21.407 35.1935C31.9371 35.1935 40.5567 27.3852 41.2578 17.5035Z" fill="white"/>
<path d="M1 35.8077H41.5895V36.6035H1V35.8077Z" fill="white"/>
<path d="M3.38769 36.6038H39.2019L38.804 37.3996H3.78562L3.38769 36.6038Z" fill="white"/>
<path d="M19.3077 26.6394L19.634 26.2606L19.6326 26.2594L19.3077 26.6394ZM20.0842 27.0158L19.9548 27.4987L19.9558 27.499L20.0842 27.0158ZM27.7106 25.0391L27.429 24.626L27.4287 24.6262L27.7106 25.0391ZM30.7816 20.59L31.2808 20.5605L31.2807 20.56L30.7816 20.59ZM30.8722 20.3418L31.1222 20.7749L31.1222 20.7749L30.8722 20.3418ZM32.9652 19.0639L32.7043 18.6374L32.7034 18.638L32.9652 19.0639ZM37.2949 16.6526L37.5186 17.0998L37.5193 17.0995L37.2949 16.6526ZM44.8949 12.9883L44.6878 12.5332L44.6875 12.5333L44.8949 12.9883ZM48.5127 11.1555L48.7907 11.5711L48.7923 11.57L48.5127 11.1555ZM49.5281 9.77302L50.0247 9.83177L50.0254 9.82511L49.5281 9.77302ZM49.4986 9.15818L49.9888 9.05959L49.9884 9.05794L49.4986 9.15818ZM48.9978 8.29089L49.3261 7.91371L49.3253 7.91305L48.9978 8.29089ZM46.7354 8.33966L46.4854 7.90665L46.7354 8.33966ZM45.7388 8.99402L45.4561 8.58158L45.4559 8.5817L45.7388 8.99402ZM41.7837 11.704L41.5013 11.2914L41.5008 11.2918L41.7837 11.704ZM37.8334 14.4113L37.5504 13.9991L37.55 13.9993L37.8334 14.4113ZM35.6293 15.9839L35.3343 15.5802L35.3339 15.5805L35.6293 15.9839ZM32.8487 17.7347L32.6267 17.2867L32.6266 17.2867L32.8487 17.7347ZM30.6052 18.9162L30.8552 19.3493L30.8552 19.3493L30.6052 18.9162ZM30.0696 19.2254L29.8236 19.6607L30.0723 19.8012L30.3196 19.6584L30.0696 19.2254ZM29.8539 19.1035L29.6064 19.538L29.6079 19.5388L29.8539 19.1035ZM25.0002 19.3814L24.8105 18.9188L24.8085 18.9196L25.0002 19.3814ZM22.9199 20.5666L22.6257 20.1623L22.6244 20.1633L22.9199 20.5666ZM18.9406 25.6697L18.4416 25.6384L18.4415 25.6385L18.9406 25.6697ZM41.2578 17.5035L41.7565 17.5389L41.7945 17.0035H41.2578V17.5035ZM1.55626 17.5035V17.0035H1.01953L1.05751 17.5389L1.55626 17.5035ZM1 35.8077V35.3077H0.5V35.8077H1ZM41.5895 35.8077H42.0895V35.3077H41.5895V35.8077ZM41.5895 36.6035V37.1035H42.0895V36.6035H41.5895ZM1 36.6035H0.5V37.1035H1V36.6035ZM3.38769 36.6038V36.1038H2.57867L2.94047 36.8274L3.38769 36.6038ZM39.2019 36.6038L39.6491 36.8274L40.0109 36.1038H39.2019V36.6038ZM38.804 37.3996V37.8996H39.113L39.2512 37.6232L38.804 37.3996ZM3.78562 37.3996L3.33841 37.6232L3.4766 37.8996H3.78562V37.3996ZM31.4592 9.08352L30.9641 9.15363L31.4592 9.08352ZM28.9583 6.58263L28.4594 6.54976L28.4594 6.54976L28.9583 6.58263ZM31.8328 4.04022C32.0449 3.86344 32.0736 3.54816 31.8968 3.33602C31.72 3.12388 31.4048 3.09522 31.1926 3.272L31.8328 4.04022ZM23.3246 7.94529L23.8197 7.87518L23.8197 7.87518L23.3246 7.94529ZM20.0462 4.66681L19.5472 4.63393L19.5472 4.63393L20.0462 4.66681ZM23.7149 1.21445C23.927 1.03767 23.9557 0.722389 23.7789 0.51025C23.6021 0.298111 23.2868 0.269448 23.0747 0.44623L23.7149 1.21445ZM14.1801 9.08352L13.6851 9.15363L14.1801 9.08352ZM11.6792 6.58263L11.1803 6.54976L11.1803 6.54976L11.6792 6.58263ZM14.5537 4.04022C14.7659 3.86344 14.7945 3.54816 14.6178 3.33602C14.441 3.12388 14.1257 3.09522 13.9136 3.272L14.5537 4.04022ZM18.9814 27.0183C19.1178 27.1357 19.2519 27.2316 19.419 27.3123C19.5793 27.3896 19.7527 27.4446 19.9548 27.4987L20.2136 26.5328C20.0307 26.4838 19.929 26.448 19.8538 26.4117C19.7855 26.3787 19.7239 26.338 19.634 26.2606L18.9814 27.0183ZM19.9558 27.499C20.9771 27.7704 22.4306 27.6292 23.8627 27.258C25.3112 26.8825 26.8259 26.2486 27.9925 25.4521L27.4287 24.6262C26.3768 25.3444 24.9739 25.9369 23.6117 26.29C22.2331 26.6474 20.9827 26.7372 20.2126 26.5325L19.9558 27.499ZM27.9922 25.4523C29.005 24.762 29.8402 23.951 30.4158 23.117C30.9863 22.2906 31.3303 21.3989 31.2808 20.5605L30.2825 20.6195C30.314 21.1529 30.093 21.8244 29.5929 22.5489C29.098 23.2659 28.3571 23.9935 27.429 24.626L27.9922 25.4523ZM31.2807 20.56C31.2776 20.5079 31.2769 20.4903 31.277 20.4827C31.277 20.4721 31.2791 20.5231 31.2539 20.5909C31.2396 20.6292 31.2191 20.6668 31.1925 20.7013C31.167 20.7343 31.1419 20.7566 31.1257 20.7696C31.1106 20.7815 31.1001 20.7878 31.1019 20.7867C31.1039 20.7854 31.1079 20.7831 31.1222 20.7749L30.6222 19.9088C30.6095 19.9161 30.5529 19.9474 30.5032 19.9869C30.435 20.0411 30.3611 20.1228 30.3167 20.242C30.2799 20.341 30.2773 20.4314 30.277 20.4762C30.2767 20.5238 30.28 20.5774 30.2825 20.62L31.2807 20.56ZM31.1222 20.7749C31.1843 20.739 32.135 20.1613 33.2271 19.4898L32.7034 18.638C32.156 18.9745 31.6469 19.2858 31.2679 19.5168C31.0784 19.6323 30.9215 19.7277 30.8088 19.7961C30.7523 19.8304 30.7072 19.8577 30.6745 19.8774C30.6582 19.8873 30.6452 19.895 30.6357 19.9007C30.625 19.9072 30.6215 19.9092 30.6222 19.9088L31.1222 20.7749ZM33.2262 19.4904C35.412 18.1529 35.402 18.1586 37.5186 17.0998L37.0713 16.2054C34.9272 17.2779 34.9124 17.2863 32.7043 18.6374L33.2262 19.4904ZM37.5193 17.0995C39.8205 15.9443 43.421 14.2094 45.1022 13.4433L44.6875 12.5333C42.9918 13.3061 39.3795 15.0468 37.0706 16.2057L37.5193 17.0995ZM45.1019 13.4434C46.646 12.7409 48.2685 11.9204 48.7907 11.5711L48.2347 10.7399C47.7906 11.037 46.2415 11.8263 44.6878 12.5332L45.1019 13.4434ZM48.7923 11.57C49.4741 11.1102 49.9406 10.5419 50.0247 9.83176L49.0316 9.71427C48.9952 10.0215 48.7884 10.3664 48.2332 10.7409L48.7923 11.57ZM50.0254 9.82511C50.0564 9.52963 50.0495 9.36141 49.9888 9.05959L49.0084 9.25677C49.049 9.45883 49.0513 9.52542 49.0308 9.72092L50.0254 9.82511ZM49.9884 9.05794C49.9453 8.84715 49.8458 8.62412 49.7383 8.43801C49.6313 8.25268 49.488 8.05459 49.3261 7.91371L48.6696 8.66808C48.7173 8.70954 48.7956 8.80521 48.8723 8.93801C48.9485 9.07002 48.9946 9.18946 49.0087 9.25842L49.9884 9.05794ZM49.3253 7.91305C48.9446 7.58306 48.4898 7.41786 47.987 7.42828C47.4977 7.43842 46.9929 7.61364 46.4854 7.90665L46.9854 8.77267C47.402 8.53211 47.7407 8.4336 48.0077 8.42806C48.2613 8.42281 48.4757 8.50001 48.6704 8.66874L49.3253 7.91305ZM46.4854 7.90665C46.3263 7.99849 45.8639 8.30214 45.4561 8.58158L46.0214 9.40647C46.4332 9.1243 46.8648 8.84227 46.9854 8.77267L46.4854 7.90665ZM45.4559 8.5817C45.0487 8.86108 43.2697 10.0809 41.5013 11.2914L42.0662 12.1166C43.8349 10.9058 45.6141 9.68584 46.0216 9.40635L45.4559 8.5817ZM41.5008 11.2918C39.7401 12.5003 37.9501 13.7247 37.5504 13.9991L38.1164 14.8235C38.5268 14.5417 40.2929 13.3338 42.0667 12.1162L41.5008 11.2918ZM37.55 13.9993C36.8596 14.4744 36.3876 14.8107 35.3343 15.5802L35.9243 16.3877C36.9732 15.6213 37.4369 15.2909 38.1168 14.8232L37.55 13.9993ZM35.3339 15.5805C34.1243 16.4663 33.5187 16.8447 32.6267 17.2867L33.0707 18.1827C34.0311 17.7068 34.6872 17.2936 35.9247 16.3874L35.3339 15.5805ZM32.6266 17.2867C31.6541 17.7688 30.9604 18.1338 30.3552 18.4832L30.8552 19.3493C31.4347 19.0146 32.1076 18.6601 33.0708 18.1827L32.6266 17.2867ZM30.3552 18.4832L29.8196 18.7924L30.3196 19.6584L30.8552 19.3493L30.3552 18.4832ZM30.3156 18.7901L30.0999 18.6682L29.6079 19.5388L29.8236 19.6607L30.3156 18.7901ZM30.1014 18.6691C28.7837 17.9186 26.8417 18.0859 24.8105 18.9188L25.1899 19.844C27.1236 19.0512 28.6927 19.0176 29.6064 19.538L30.1014 18.6691ZM24.8085 18.9196C24.5621 19.0218 24.1224 19.2563 23.7097 19.4915C23.2946 19.7279 22.8604 19.9916 22.6257 20.1623L23.2141 20.9709C23.3999 20.8357 23.7917 20.5956 24.2047 20.3604C24.6199 20.1238 25.01 19.9186 25.1918 19.8432L24.8085 18.9196ZM22.6244 20.1633C21.4641 21.0136 20.4558 21.9839 19.7218 22.9254C19.0021 23.8484 18.4935 24.8105 18.4416 25.6384L19.4396 25.7011C19.4722 25.1816 19.8255 24.4187 20.5104 23.5402C21.181 22.6802 22.1201 21.7727 23.2155 20.9699L22.6244 20.1633ZM18.4415 25.6385C18.4092 26.1552 18.5862 26.6804 18.9827 27.0195L19.6326 26.2594C19.5175 26.161 19.4231 25.9645 19.4396 25.701L18.4415 25.6385ZM41.2578 17.0035H1.55626V18.0035H41.2578V17.0035ZM21.407 34.6935C11.1213 34.6935 2.73626 27.0705 2.055 17.4681L1.05751 17.5389C1.77841 27.7 10.6325 35.6935 21.407 35.6935V34.6935ZM40.759 17.4681C40.0778 27.0705 31.6928 34.6935 21.407 34.6935V35.6935C32.1815 35.6935 41.0356 27.7 41.7565 17.5389L40.759 17.4681ZM1 36.3077H41.5895V35.3077H1V36.3077ZM41.0895 35.8077V36.6035H42.0895V35.8077H41.0895ZM41.5895 36.1035H1V37.1035H41.5895V36.1035ZM1.5 36.6035V35.8077H0.5V36.6035H1.5ZM3.38769 37.1038H39.2019V36.1038H3.38769V37.1038ZM38.7547 36.3802L38.3568 37.176L39.2512 37.6232L39.6491 36.8274L38.7547 36.3802ZM38.804 36.8996H3.78562V37.8996H38.804V36.8996ZM4.23284 37.176L3.8349 36.3802L2.94047 36.8274L3.33841 37.6232L4.23284 37.176ZM28.7828 12.3186C29.0667 12.7302 29.0668 12.7302 29.0669 12.7301C29.0669 12.7301 29.067 12.73 29.0671 12.7299C29.0673 12.7298 29.0675 12.7297 29.0677 12.7295C29.0683 12.7291 29.069 12.7286 29.0698 12.728C29.0716 12.7268 29.074 12.7251 29.0771 12.723C29.0832 12.7187 29.092 12.7126 29.1032 12.7046C29.1256 12.6888 29.1579 12.6658 29.1985 12.6364C29.2798 12.5775 29.3947 12.4926 29.5316 12.3869C29.8047 12.1761 30.1695 11.8796 30.5308 11.5396C30.8891 11.2025 31.2597 10.8081 31.5322 10.4007C31.7929 10.0109 32.0258 9.51831 31.9543 9.01341L30.9641 9.15363C30.9822 9.28125 30.9253 9.50933 30.701 9.84473C30.4884 10.1625 30.1787 10.4978 29.8455 10.8113C29.5153 11.122 29.1774 11.397 28.9207 11.5952C28.7927 11.694 28.6859 11.7729 28.6117 11.8267C28.5746 11.8536 28.5457 11.8742 28.5264 11.8878C28.5167 11.8946 28.5095 11.8997 28.5048 11.9029C28.5025 11.9045 28.5008 11.9057 28.4998 11.9064C28.4993 11.9067 28.499 11.907 28.4988 11.9071C28.4987 11.9072 28.4987 11.9072 28.4987 11.9072C28.4987 11.9072 28.4987 11.9072 28.4987 11.9072C28.4988 11.9071 28.4988 11.9071 28.7828 12.3186ZM31.9543 9.01341C31.8874 8.54105 31.5952 8.2091 31.2986 7.97352C31.0078 7.7426 30.6472 7.5543 30.3551 7.39653C30.0377 7.22516 29.7944 7.08653 29.6296 6.93647C29.48 6.80026 29.4512 6.70712 29.4572 6.61551L28.4594 6.54976C28.4266 7.04755 28.6703 7.41551 28.9564 7.67597C29.2273 7.92257 29.5831 8.11617 29.8799 8.27645C30.202 8.45034 30.4708 8.59314 30.6767 8.7566C30.8766 8.91541 30.9482 9.04114 30.9641 9.15363L31.9543 9.01341ZM29.4572 6.61551C29.4667 6.47169 29.5428 6.27149 29.7169 6.01733C29.8865 5.76969 30.1214 5.51093 30.3865 5.25631C30.9262 4.73793 31.5037 4.3145 31.8328 4.04022L31.1926 3.272C30.9288 3.49184 30.265 3.98638 29.6937 4.53509C29.4033 4.81401 29.1153 5.12607 28.8919 5.45219C28.6729 5.77179 28.4858 6.14829 28.4594 6.54976L29.4572 6.61551ZM29.6229 3.0229V12.744H30.6229V3.0229H29.6229ZM19.816 12.1863C20.1 12.5979 20.1 12.5978 20.1001 12.5978C20.1002 12.5977 20.1003 12.5976 20.1004 12.5976C20.1006 12.5974 20.1009 12.5973 20.1012 12.597C20.1018 12.5966 20.1027 12.596 20.1037 12.5953C20.1059 12.5938 20.109 12.5916 20.1129 12.5889C20.1207 12.5834 20.132 12.5756 20.1464 12.5653C20.1754 12.5449 20.2171 12.5152 20.2698 12.4769C20.3752 12.4006 20.5246 12.2902 20.7028 12.1527C21.0582 11.8784 21.5322 11.493 22.001 11.0518C22.4669 10.6135 22.9432 10.1057 23.2911 9.58556C23.6272 9.08303 23.9051 8.47842 23.8197 7.87518L22.8296 8.0154C22.8616 8.24136 22.7596 8.58148 22.4599 9.02961C22.1719 9.46016 21.7565 9.90889 21.3158 10.3236C20.8781 10.7354 20.4309 11.0993 20.0918 11.361C19.9226 11.4916 19.7814 11.5959 19.683 11.6673C19.6338 11.7029 19.5954 11.7303 19.5696 11.7485C19.5567 11.7576 19.547 11.7644 19.5406 11.7688C19.5375 11.771 19.5352 11.7726 19.5337 11.7736C19.533 11.7741 19.5325 11.7745 19.5322 11.7747C19.5321 11.7747 19.532 11.7748 19.532 11.7748C19.532 11.7748 19.532 11.7748 19.532 11.7748C19.532 11.7748 19.5321 11.7748 19.816 12.1863ZM23.8197 7.87518C23.7399 7.3119 23.3912 6.9088 23.0174 6.6119C22.6494 6.31967 22.191 6.0799 21.8033 5.87057C21.3905 5.64764 21.0541 5.45735 20.8215 5.24563C20.6041 5.04775 20.533 4.88292 20.5451 4.69968L19.5472 4.63393C19.5084 5.22336 19.7945 5.663 20.1483 5.98512C20.487 6.2934 20.9359 6.53864 21.3282 6.75049C21.7457 6.97594 22.1125 7.1702 22.3955 7.39498C22.6726 7.6151 22.8008 7.81198 22.8296 8.0154L23.8197 7.87518ZM20.5451 4.69968C20.5601 4.47108 20.6771 4.18123 20.9123 3.83787C21.1431 3.50104 21.4592 3.15353 21.8107 2.81596C22.5231 2.1317 23.2936 1.56555 23.7149 1.21445L23.0747 0.44623C22.7187 0.742892 21.862 1.38014 21.118 2.09474C20.7412 2.45661 20.3718 2.85741 20.0873 3.27273C19.8073 3.68153 19.5793 4.14769 19.5472 4.63393L20.5451 4.69968ZM21.0727 0V12.7436H22.0727V0H21.0727ZM11.5037 12.3186C11.7876 12.7302 11.7877 12.7302 11.7878 12.7301C11.7878 12.7301 11.7879 12.73 11.788 12.7299C11.7882 12.7298 11.7884 12.7297 11.7887 12.7295C11.7892 12.7291 11.7899 12.7286 11.7908 12.728C11.7925 12.7268 11.7949 12.7251 11.798 12.723C11.8041 12.7187 11.8129 12.7126 11.8241 12.7046C11.8466 12.6888 11.8788 12.6658 11.9195 12.6364C12.0007 12.5775 12.1156 12.4926 12.2526 12.3869C12.5256 12.1761 12.8904 11.8796 13.2517 11.5396C13.61 11.2025 13.9807 10.8081 14.2531 10.4007C14.5138 10.0109 14.7467 9.51831 14.6752 9.01341L13.6851 9.15363C13.7031 9.28125 13.6462 9.50933 13.4219 9.84473C13.2093 10.1625 12.8997 10.4978 12.5665 10.8113C12.2363 11.122 11.8984 11.397 11.6416 11.5952C11.5136 11.694 11.4069 11.7729 11.3326 11.8267C11.2955 11.8536 11.2666 11.8742 11.2473 11.8878C11.2377 11.8946 11.2304 11.8997 11.2258 11.9029C11.2234 11.9045 11.2218 11.9057 11.2208 11.9064C11.2203 11.9067 11.2199 11.907 11.2197 11.9071C11.2197 11.9072 11.2196 11.9072 11.2196 11.9072C11.2196 11.9072 11.2197 11.9072 11.2197 11.9072C11.2197 11.9071 11.2198 11.9071 11.5037 12.3186ZM14.6752 9.01341C14.6083 8.54105 14.3161 8.2091 14.0195 7.97352C13.7288 7.7426 13.3682 7.5543 13.076 7.39653C12.7586 7.22516 12.5154 7.08653 12.3505 6.93647C12.2009 6.80026 12.1721 6.70712 12.1782 6.61551L11.1803 6.54976C11.1475 7.04755 11.3912 7.41551 11.6774 7.67597C11.9483 7.92257 12.304 8.11617 12.6009 8.27645C12.9229 8.45034 13.1918 8.59314 13.3976 8.7566C13.5976 8.91541 13.6691 9.04114 13.6851 9.15363L14.6752 9.01341ZM12.1782 6.61551C12.1876 6.47169 12.2637 6.27149 12.4378 6.01733C12.6074 5.76969 12.8423 5.51093 13.1074 5.25631C13.6471 4.73793 14.2246 4.3145 14.5537 4.04022L13.9136 3.272C13.6497 3.49184 12.986 3.98638 12.4147 4.53509C12.1243 4.81401 11.8362 5.12607 11.6128 5.45219C11.3939 5.77179 11.2068 6.14829 11.1803 6.54976L12.1782 6.61551ZM12.344 3.0229V12.744H13.344V3.0229H12.344Z" fill="white"/>
</svg>
