<svg width="212" height="131" viewBox="0 0 212 131" fill="none" xmlns="http://www.w3.org/2000/svg">
<path d="M8.71368 111.928H11.6034C14.8044 111.928 16.4048 110.535 16.4048 107.749C16.4048 104.963 14.8044 103.57 11.6034 103.57H8.71368V111.928ZM8.71368 130.066H0V96.5454H13.8708C17.6348 96.5454 20.5097 97.5235 22.4955 99.4796C24.5109 101.436 25.5186 104.192 25.5186 107.749C25.5186 111.305 24.5109 114.062 22.4955 116.018C20.5097 117.974 17.6348 118.952 13.8708 118.952H8.71368V130.066Z" fill="#001B56"/>
<path d="M37.0658 111.528H38.7107C40.4297 111.528 41.7486 111.172 42.6674 110.461C43.5862 109.749 44.0456 108.727 44.0456 107.393C44.0456 106.059 43.5862 105.037 42.6674 104.325C41.7486 103.614 40.4297 103.258 38.7107 103.258H37.0658V111.528ZM56.227 130.066H45.3793L37.0658 117.174V130.066H28.3521V96.5454H41.9116C43.7789 96.5454 45.409 96.827 46.802 97.3901C48.195 97.9236 49.3361 98.6645 50.2252 99.613C51.144 100.561 51.8257 101.658 52.2703 102.903C52.7445 104.148 52.9816 105.481 52.9816 106.904C52.9816 109.453 52.3592 111.528 51.1144 113.128C49.8992 114.699 48.0912 115.766 45.6905 116.329L56.227 130.066Z" fill="#001B56"/>
<path d="M65.0879 113.306C65.0879 114.64 65.3398 115.87 65.8437 116.996C66.3475 118.122 67.0292 119.1 67.8887 119.93C68.7483 120.76 69.7411 121.412 70.8674 121.886C72.0233 122.331 73.2385 122.553 74.5129 122.553C75.7874 122.553 76.9877 122.331 78.114 121.886C79.2699 121.412 80.2776 120.76 81.1371 119.93C82.0262 119.1 82.7227 118.122 83.2266 116.996C83.7304 115.87 83.9824 114.64 83.9824 113.306C83.9824 111.972 83.7304 110.742 83.2266 109.616C82.7227 108.49 82.0262 107.512 81.1371 106.682C80.2776 105.852 79.2699 105.215 78.114 104.77C76.9877 104.296 75.7874 104.059 74.5129 104.059C73.2385 104.059 72.0233 104.296 70.8674 104.77C69.7411 105.215 68.7483 105.852 67.8887 106.682C67.0292 107.512 66.3475 108.49 65.8437 109.616C65.3398 110.742 65.0879 111.972 65.0879 113.306ZM55.9741 113.306C55.9741 110.816 56.4335 108.504 57.3523 106.371C58.2711 104.207 59.5455 102.325 61.1757 100.724C62.8058 99.1239 64.7471 97.8791 66.9996 96.99C69.2817 96.0712 71.7862 95.6118 74.5129 95.6118C77.21 95.6118 79.6996 96.0712 81.9818 96.99C84.2639 97.8791 86.2201 99.1239 87.8502 100.724C89.5099 102.325 90.7992 104.207 91.718 106.371C92.6368 108.504 93.0962 110.816 93.0962 113.306C93.0962 115.796 92.6368 118.122 91.718 120.286C90.7992 122.42 89.5099 124.287 87.8502 125.887C86.2201 127.488 84.2639 128.747 81.9818 129.666C79.6996 130.555 77.21 131 74.5129 131C71.7862 131 69.2817 130.555 66.9996 129.666C64.7471 128.747 62.8058 127.488 61.1757 125.887C59.5455 124.287 58.2711 122.42 57.3523 120.286C56.4335 118.122 55.9741 115.796 55.9741 113.306Z" fill="#001B56"/>
<path d="M116.028 103.925H105.536V109.527H115.094V116.907H105.536V130.066H96.8219V96.5454H116.028V103.925Z" fill="#001B56"/>
<path d="M128.157 96.5454V130.066H119.443V96.5454H128.157Z" fill="#001B56"/>
<path d="M146.096 103.925V130.066H137.382V103.925H130.225V96.5454H153.254V103.925H146.096Z" fill="#001B56"/>
<path d="M186.909 117.618L182.997 106.459L179.085 117.618H186.909ZM189.221 124.242H176.773L174.772 130.066H165.481L178.24 96.5454H187.754L200.513 130.066H191.222L189.221 124.242Z" fill="#001B56"/>
<path d="M211.261 96.5454V130.066H202.547V96.5454H211.261Z" fill="#001B56"/>
<path d="M98.2041 54.8252C98.6697 55.2262 99.0099 55.3874 99.8022 55.5997C103.489 56.5793 110.931 54.6491 115.497 51.5318C119.492 48.8096 121.984 45.1986 121.817 42.3755C121.794 41.9858 121.799 41.983 122.004 41.8648C122.116 41.8 124.056 40.6215 126.311 39.2347C130.833 36.4683 130.838 36.4655 135.222 34.2723C139.966 31.8911 147.388 28.3148 150.862 26.7313C154.05 25.281 157.314 23.6244 158.308 22.9592C159.581 22.1008 160.274 21.161 160.398 20.1142C160.451 19.609 160.441 19.3673 160.337 18.8488C160.219 18.2731 159.738 17.4392 159.306 17.064C158.122 16.0376 156.552 16.0663 154.65 17.1643C154.362 17.3305 153.442 17.9331 152.599 18.511C151.761 19.0861 148.099 21.5966 144.46 24.0882C140.823 26.5846 137.163 29.0874 136.33 29.6596C134.92 30.6298 133.957 31.3158 131.794 32.8963C129.276 34.7402 127.978 35.5548 126.071 36.4993C124.08 37.4867 122.673 38.227 121.454 38.9309L120.352 39.5672L119.908 39.3163C117.612 38.0086 113.999 38.2153 109.919 39.8882C109.038 40.2539 106.503 41.6977 105.638 42.3274C100.996 45.7293 97.6227 50.0566 97.4486 52.8296C97.3984 53.6323 97.6776 54.375 98.2041 54.8252Z" fill="#05266E"/>
<path fill-rule="evenodd" clip-rule="evenodd" d="M143.378 36.0209H61.6721C63.1149 56.3576 80.8539 72.427 102.525 72.427C124.196 72.427 141.935 56.3576 143.378 36.0209Z" fill="#2662E4"/>
<rect x="60.5271" y="73.6925" width="83.5329" height="1.6379" fill="#2662E4"/>
<path d="M65.4409 75.3304H139.146L138.327 76.9683H66.2599L65.4409 75.3304Z" fill="#2662E4"/>
<path d="M117.704 25.351C117.704 25.351 123.581 21.2966 123.212 18.6931C122.871 16.2859 117.905 15.9723 118.065 13.5463C118.213 11.3019 122.102 8.54044 123.322 7.52353" stroke="#06E771" stroke-linecap="round"/>
<path d="M120.462 6.2204L120.462 26.2263" stroke="#06E771"/>
<path d="M99.2504 25.0789C99.2504 25.0789 106.954 19.7638 106.471 16.3508C106.024 13.1951 99.5144 12.784 99.724 9.60374C99.9179 6.66145 105.016 3.04141 106.615 1.70831" stroke="#06E771" stroke-linecap="round"/>
<path d="M102.866 0L102.866 26.2263" stroke="#06E771"/>
<path d="M82.1437 25.351C82.1437 25.351 88.0205 21.2966 87.6518 18.6931C87.3109 16.2859 82.3451 15.9723 82.505 13.5463C82.6529 11.3019 86.5417 8.54044 87.762 7.52353" stroke="#06E771" stroke-linecap="round"/>
<path d="M84.9019 6.2204L84.9019 26.2263" stroke="#06E771"/>
</svg>
