<svg width="107" height="33" viewBox="0 0 107 33" fill="none" xmlns="http://www.w3.org/2000/svg">
<path d="M42.7353 0H4C1.79086 0 0 1.79086 0 4V28.0471C0 30.2562 1.79086 32.0471 4 32.0471H42.7353C44.9444 32.0471 46.7353 30.2562 46.7353 28.0471V4C46.7353 1.79086 44.9444 0 42.7353 0Z" fill="#EBF3FA"/>
<path d="M19.995 21.4753H17.3525L19.0053 11.2555H21.6477L19.995 21.4753Z" fill="#00579F"/>
<path d="M29.5733 11.5054C29.0521 11.2986 28.2254 11.0703 27.2032 11.0703C24.5936 11.0703 22.756 12.4619 22.7447 14.4514C22.723 15.9192 24.0604 16.7345 25.0606 17.2239C26.083 17.7241 26.4305 18.0505 26.4305 18.4963C26.4201 19.1809 25.6044 19.4965 24.8436 19.4965C23.7886 19.4965 23.2233 19.3338 22.3642 18.9529L22.0162 18.7896L21.6465 21.0838C22.2662 21.3661 23.4081 21.6167 24.5936 21.6277C27.3663 21.6277 29.1714 20.2576 29.1928 18.1375C29.2034 16.9741 28.4972 16.0827 26.9747 15.3542C26.0505 14.8866 25.4845 14.5713 25.4845 14.0929C25.4953 13.6579 25.9632 13.2124 27.0065 13.2124C27.8656 13.1906 28.4968 13.3971 28.9749 13.6037L29.2139 13.7122L29.5733 11.5054Z" fill="#00579F"/>
<path d="M33.0869 17.8548C33.3045 17.2676 34.1419 14.9953 34.1419 14.9953C34.1309 15.0172 34.3591 14.3974 34.4896 14.0169L34.6743 14.8975C34.6743 14.8975 35.1747 17.3438 35.2833 17.8548C34.8704 17.8548 33.6088 17.8548 33.0869 17.8548ZM36.3488 11.2555H34.3048C33.6745 11.2555 33.1956 11.4401 32.9236 12.1034L28.9985 21.4751H31.7712C31.7712 21.4751 32.2277 20.2138 32.3258 19.9421C32.63 19.9421 35.3273 19.9421 35.7186 19.9421C35.7945 20.3009 36.0339 21.4751 36.0339 21.4751H38.4806L36.3488 11.2555Z" fill="#00579F"/>
<path d="M15.1448 11.2555L12.5569 18.2244L12.2741 16.811C11.7956 15.1802 10.2951 13.4083 8.62061 12.5272L10.991 21.4644H13.7854L17.939 11.2555H15.1448Z" fill="#00579F"/>
<path d="M10.1539 11.2555H5.90238L5.85889 11.462C9.17537 12.31 11.3718 14.3543 12.2742 16.8114L11.35 12.1145C11.1978 11.4618 10.7302 11.277 10.1539 11.2555Z" fill="#FAA61A"/>
<path d="M103 0H64.2651C62.056 0 60.2651 1.79086 60.2651 4V28.0471C60.2651 30.2562 62.056 32.0471 64.2651 32.0471H103C105.21 32.0471 107 30.2562 107 28.0471V4C107 1.79086 105.21 0 103 0Z" fill="#FFF4EE"/>
<path fill-rule="evenodd" clip-rule="evenodd" d="M83.9659 22.9096C82.3749 24.2826 80.3108 25.1115 78.0558 25.1115C73.0238 25.1115 68.9438 20.9847 68.9438 15.894C68.9438 10.8033 73.0238 6.67645 78.0558 6.67645C80.3108 6.67645 82.3749 7.50533 83.9659 8.87839C85.5569 7.50533 87.6209 6.67645 89.8759 6.67645C94.9089 6.67645 98.9879 10.8033 98.9879 15.894C98.9879 20.9847 94.9089 25.1115 89.8759 25.1115C87.6209 25.1115 85.5569 24.2826 83.9659 22.9096Z" fill="#ED0006"/>
<path fill-rule="evenodd" clip-rule="evenodd" d="M83.9658 22.9096C85.9248 21.2189 87.1678 18.7032 87.1678 15.894C87.1678 13.0848 85.9248 10.5691 83.9658 8.87839C85.5568 7.50533 87.6208 6.67645 89.8768 6.67645C94.9088 6.67645 98.9878 10.8033 98.9878 15.894C98.9878 20.9847 94.9088 25.1115 89.8768 25.1115C87.6208 25.1115 85.5568 24.2826 83.9658 22.9096Z" fill="#F9A000"/>
<path fill-rule="evenodd" clip-rule="evenodd" d="M83.9661 8.87848C85.9251 10.5691 87.1681 13.0848 87.1681 15.894C87.1681 18.7032 85.9251 21.2189 83.9661 22.9095C82.0071 21.2189 80.7651 18.7032 80.7651 15.894C80.7651 13.0848 82.0071 10.5691 83.9661 8.87848Z" fill="#FF5E00"/>
</svg>
