<svg width="311" height="221" viewBox="0 0 311 221" fill="none" xmlns="http://www.w3.org/2000/svg">
<path d="M100.625 16.3518C97.5826 19.1918 85.5926 30.4966 82.1008 32.7324C81.6106 32.1381 74.2578 22.2647 74.2578 22.2647C74.1212 22.0763 73.9407 21.9238 73.7317 21.8204C73.5228 21.717 73.2918 21.6658 73.0586 21.6713C72.8254 21.6767 72.597 21.7387 72.3932 21.8517C72.1894 21.9647 72.0162 22.1255 71.8886 22.3201L55.4428 47.0498L45.0312 42.9591C44.7728 42.849 44.4846 42.8294 44.2136 42.9037C43.9427 42.9779 43.705 43.1416 43.5394 43.3679L20.9287 73.7305C20.8148 73.8817 20.7469 74.0623 20.7329 74.2508C20.7189 74.4393 20.7595 74.6279 20.8498 74.7942C20.9401 74.9604 21.0763 75.0974 21.2423 75.1889C21.4084 75.2803 21.5972 75.3224 21.7865 75.3101L98.8897 70.0502C99.2362 70.0258 99.5618 69.8764 99.8057 69.63C100.05 69.3836 100.195 69.0571 100.215 68.7116L103.107 17.5064C103.126 17.2121 103.055 16.9191 102.904 16.6655C102.754 16.4119 102.529 16.2095 102.261 16.0848C101.993 15.9601 101.694 15.9189 101.402 15.9665C101.11 16.0141 100.839 16.1484 100.625 16.3518Z" fill="#38A1FF"/>
<path d="M110.006 142.254L7.5123 157.427C6.96742 157.512 6.41031 157.478 5.88029 157.326C5.35026 157.173 4.86025 156.907 4.44482 156.545C4.02939 156.183 3.69868 155.735 3.47601 155.232C3.25335 154.729 3.14417 154.184 3.15617 153.634V6.63978C3.20877 5.64746 3.62372 4.70858 4.32281 4.00006C4.6743 3.64887 5.09353 3.37229 5.55521 3.187C6.01689 3.00172 6.51145 2.91158 7.00904 2.92202C23.3127 3.20049 151.085 5.35656 159.312 5.48684C160.338 5.5287 161.311 5.94668 162.047 6.66052C162.782 7.37436 163.227 8.33373 163.296 9.35443V93.2639C163.341 93.5332 163.481 93.7776 163.691 93.9538C163.9 94.1301 164.165 94.2268 164.439 94.2268C164.713 94.2268 164.979 94.1301 165.188 93.9538C165.397 93.7776 165.537 93.5332 165.583 93.2639V9.35443C165.616 8.51617 165.479 7.67989 165.181 6.89551C164.882 6.11113 164.428 5.39472 163.846 4.78905C163.263 4.18338 162.564 3.70086 161.791 3.37029C161.017 3.03973 160.185 2.86788 159.343 2.86502C151.134 2.70218 23.3633 0.300206 7.05806 0.00219856C6.17284 -0.0206456 5.2921 0.134731 4.46854 0.459032C3.64498 0.783333 2.89554 1.26989 2.26505 1.88958C1.63457 2.50928 1.13601 3.24938 0.799204 4.06558C0.462403 4.88178 0.294284 5.75732 0.304911 6.63978C0.304911 163.981 -0.00880939 154.259 0.958494 156.367C1.55927 157.655 2.56211 158.715 3.81724 159.389C5.07237 160.062 6.51245 160.313 7.92243 160.104L110.305 144.189C110.559 144.144 110.786 144.003 110.938 143.795C111.091 143.587 111.156 143.329 111.122 143.074C111.083 142.817 110.943 142.587 110.734 142.434C110.524 142.28 110.263 142.216 110.006 142.254ZM212.35 126.73L199.478 128.522C198.491 128.651 197.488 128.461 196.618 127.979C195.748 127.497 195.057 126.748 194.646 125.844C194.025 124.433 194.32 128.331 194.458 78.7821C194.458 77.6882 194.873 76.6349 195.622 75.8346C196.37 75.0343 197.395 74.5466 198.489 74.4699C261.233 70.2196 258.456 69.9314 260.09 70.5095C260.992 70.8164 261.778 71.3936 262.339 72.1622C262.9 72.9308 263.209 73.8534 263.224 74.8037L263.354 85.6802C263.354 85.9415 263.458 86.1921 263.644 86.3768C263.829 86.5616 264.081 86.6654 264.343 86.6654C264.605 86.6654 264.856 86.5616 265.042 86.3768C265.227 86.1921 265.331 85.9415 265.331 85.6802C265.411 73.9765 265.684 73.8495 264.939 72.0516C264.373 70.7268 263.41 69.6088 262.181 68.8509C260.953 68.0929 259.519 67.732 258.077 67.8176C252.443 68.1531 205.989 71.0534 198.303 71.5631C196.462 71.6865 194.737 72.5019 193.477 73.8444C192.216 75.1869 191.514 76.9564 191.512 78.7951C191.532 85.0614 191.676 119.309 191.718 123.957C191.725 124.963 191.95 125.956 192.378 126.867C192.806 127.779 193.427 128.587 194.198 129.237C194.969 129.886 195.872 130.362 196.845 130.631C197.818 130.901 198.837 130.957 199.834 130.797L212.649 128.68C212.906 128.64 213.136 128.5 213.289 128.29C213.443 128.081 213.506 127.82 213.466 127.564C213.427 127.307 213.288 127.076 213.079 126.92C212.87 126.764 212.609 126.696 212.35 126.73ZM258.747 4.94782C193.225 3.34216 197.901 3.22491 196.063 3.98052C194.741 4.50931 193.605 5.4168 192.8 6.58834C191.995 7.75988 191.557 9.14292 191.54 10.5627V55.9104C191.532 56.8908 191.728 57.8621 192.116 58.7633C192.503 59.6645 193.074 60.4759 193.791 61.1466C194.509 61.8172 195.358 62.3325 196.285 62.66C197.213 62.9875 198.198 63.1201 199.179 63.0495L259.119 58.9963C260.91 58.9035 262.592 58.1089 263.797 56.7856C265.003 55.4623 265.635 53.7177 265.555 51.932V11.6229C265.471 9.86213 264.723 8.19792 263.461 6.96347C262.198 5.72903 260.514 5.01549 258.747 4.96573V4.94782ZM258.727 6.91825C259.961 6.95482 261.133 7.46808 261.995 8.34966C262.795 9.24775 263.211 10.4229 263.152 11.6229V51.932C263.073 53.0288 262.605 54.0617 261.831 54.8455C261.057 55.6292 260.029 56.1124 258.93 56.2084L198.963 60.1313C198.384 60.1627 197.805 60.0773 197.26 59.8802C196.714 59.6831 196.215 59.3784 195.791 58.9843C195.367 58.5901 195.027 58.1147 194.791 57.5866C194.556 57.0584 194.43 56.4882 194.421 55.9104C194.421 6.39063 194.288 10.0254 194.73 8.90823C194.952 8.38467 195.276 7.90993 195.682 7.51118C196.089 7.11243 196.57 6.7975 197.099 6.58442C198.303 6.11216 193.571 6.20988 258.717 6.9378L258.727 6.91825Z" fill="#191919"/>
<path d="M23.1836 72.7487C27.0267 72.4507 98.7199 67.6533 98.7199 67.6533C98.8487 67.6408 98.9788 67.6541 99.1024 67.6924C99.226 67.7307 99.3406 67.7933 99.4396 67.8765C99.5385 67.9596 99.6198 68.0617 99.6786 68.1766C99.7374 68.2915 99.7726 68.417 99.782 68.5457C99.8037 68.8094 99.7199 69.071 99.5487 69.2733C99.3776 69.4756 99.1331 69.6021 98.8686 69.6253L21.8209 75.7793C21.6203 75.796 21.4184 75.7697 21.2287 75.7023C21.0391 75.6349 20.8661 75.5279 20.7213 75.3884C20.4223 75.11 20.4958 74.7191 20.4958 74.3104V17.417C20.4958 16.8959 21.1869 16.4497 21.7098 16.4497C21.9687 16.4505 22.2169 16.5521 22.4016 16.7328C22.5863 16.9136 22.6928 17.1591 22.6984 17.417C22.6984 17.417 23.1836 68.658 23.1836 72.7487Z" fill="#191919"/>
<path d="M212.961 99.5008C214.595 99.1752 216.066 94.9575 216.883 93.329C216.993 93.0888 217.194 92.9014 217.441 92.8073C217.689 92.7132 217.964 92.7198 218.206 92.8258C218.325 92.8782 218.433 92.9535 218.523 93.0474C218.613 93.1413 218.683 93.2519 218.73 93.3729C218.777 93.4939 218.799 93.6229 218.796 93.7526C218.793 93.8822 218.764 94.01 218.711 94.1286C218.165 96.3048 217.317 98.3946 216.192 100.338C214.867 102.158 212.555 103.145 210.95 101.546C209.662 100.299 209.246 97.5011 207.462 95.9866C206.728 95.3043 206.154 95.4981 205.372 96.1169C204.784 96.5949 204.247 97.1307 203.767 97.7161C202.2 99.9423 200.998 102.403 200.205 105.005C200.174 105.131 200.118 105.25 200.039 105.354C199.96 105.458 199.861 105.545 199.748 105.609C199.634 105.673 199.509 105.714 199.379 105.728C199.249 105.743 199.118 105.73 198.993 105.692C198.748 105.625 198.539 105.465 198.41 105.246C198.281 105.028 198.242 104.768 198.302 104.521C198.75 101.479 199.851 98.5678 201.529 95.9866C205.233 91.0638 209.156 91.3667 212.162 97.8838C212.334 98.4643 212.604 99.0112 212.961 99.5008Z" fill="#38A1FF"/>
<path d="M219.878 13.8684C215.045 13.9963 210.452 15.9997 207.079 19.452C203.706 22.9043 201.818 27.5327 201.818 32.3514C201.818 37.1701 203.706 41.7985 207.079 45.2508C210.452 48.7031 215.045 50.7065 219.878 50.8344C222.257 50.7877 224.603 50.2711 226.781 49.3146C228.958 48.3581 230.924 46.9807 232.563 45.262C234.203 43.5433 235.484 41.5176 236.333 39.302C237.182 37.0864 237.581 34.7251 237.508 32.3546C237.304 22.7305 230.089 13.8684 219.878 13.8684ZM219.878 47.9878C215.806 47.8955 211.938 46.1981 209.12 43.2676C206.302 40.3371 204.765 36.4127 204.845 32.3546C204.845 23.1734 212.411 16.1645 220.683 16.7215C220.538 19.2342 219.785 29.8696 219.692 32.1185C219.69 32.3763 219.756 32.63 219.884 32.854C220.012 33.0781 220.196 33.2646 220.42 33.3948C220.643 33.5249 220.897 33.5941 221.155 33.5953C221.414 33.5965 221.668 33.5298 221.893 33.4017C225.986 30.8978 229.943 28.1799 233.749 25.2595C238.616 35.833 230.989 48.0855 219.878 47.9878Z" fill="#38A1FF"/>
<path d="M114.278 88.3411C114.258 88.0786 114.135 87.8345 113.936 87.661C113.738 87.4875 113.479 87.3985 113.215 87.4129C113.215 87.4129 32.2488 92.5621 26.4172 92.9708C25.0515 93.0708 23.7725 93.6754 22.8307 94.6661C21.889 95.6568 21.3523 96.9623 21.3258 98.3268C21.2703 102.268 20.8356 142.261 20.8356 142.261C20.8306 142.52 20.9292 142.771 21.1095 142.957C21.2898 143.144 21.5372 143.252 21.7972 143.257C22.0572 143.262 22.3086 143.164 22.4959 142.984C22.6833 142.804 22.7914 142.558 22.7964 142.298C22.7964 142.298 23.4794 121.4 23.8993 108.334L33.8991 107.695C33.3419 117.758 32.6884 131.13 32.7554 141.171C32.7447 141.303 32.7609 141.436 32.8027 141.562C32.8446 141.687 32.9114 141.803 32.9991 141.902C33.0869 142.002 33.1938 142.083 33.3134 142.14C33.4331 142.197 33.5631 142.23 33.6958 142.236C33.8284 142.242 33.9609 142.222 34.0855 142.176C34.21 142.13 34.3241 142.06 34.4208 141.969C34.5175 141.879 34.5949 141.769 34.6485 141.648C34.702 141.527 34.7306 141.397 34.7324 141.264C35.7798 130.862 36.3664 118.039 36.7504 107.511C53.6112 106.43 95.6677 103.38 99.2934 103.035C98.6284 113.221 97.9977 123.39 97.9977 132.347C97.9853 132.609 98.0773 132.866 98.2538 133.061C98.4303 133.256 98.677 133.374 98.9402 133.389C99.2033 133.404 99.4617 133.314 99.6592 133.14C99.8566 132.966 99.9771 132.721 99.9944 132.459C100.82 123.6 101.594 114.141 102.179 102.758C104.419 102.538 105.699 102.404 105.699 102.404C105.96 102.384 106.203 102.261 106.374 102.063C106.545 101.864 106.63 101.607 106.612 101.346C106.604 101.216 106.569 101.089 106.511 100.973C106.453 100.856 106.372 100.752 106.273 100.667C106.174 100.582 106.059 100.518 105.935 100.478C105.811 100.438 105.68 100.423 105.55 100.434C105.55 100.434 104.365 100.481 102.282 100.577C102.404 97.809 102.465 92.9855 102.473 90.2008L113.341 89.3866C113.604 89.371 113.85 89.2524 114.026 89.0565C114.201 88.8606 114.292 88.6035 114.278 88.3411ZM23.9663 106.353C24.0954 102.331 24.1901 99.3283 24.2163 98.3822C24.2296 97.7344 24.4863 97.1152 24.9356 96.647C25.3848 96.1787 25.994 95.8954 26.6427 95.8532C27.5969 95.7897 30.5642 95.5714 34.8762 95.2539C34.6589 97.7601 34.1851 103.279 34.0413 105.365C33.77 105.388 25.4369 106.202 23.9663 106.353ZM99.4552 100.706C99.6267 100.706 57.5098 103.517 36.8304 105.144C36.886 103.245 36.9432 96.1088 36.9416 95.1008C52.9707 93.9137 83.2692 91.642 100.503 90.3474C100.383 91.5019 99.6186 98.9082 99.4552 100.706Z" fill="#191919"/>
<path d="M113.573 26.538C115.221 26.7217 116.883 26.7403 118.535 26.5934C120.994 26.5444 123.443 26.2642 125.849 25.7563C126.111 25.7514 126.36 25.6428 126.542 25.4545C126.724 25.2662 126.823 25.0137 126.818 24.7524C126.813 24.4911 126.704 24.2425 126.515 24.0612C126.327 23.88 126.073 23.7809 125.811 23.7859C124.765 23.6556 123.741 23.5074 122.677 23.47C120.593 23.4831 118.512 23.6196 116.445 23.8787C115.412 24.0616 114.391 24.3041 113.386 24.605C113.258 24.6147 113.133 24.6501 113.019 24.709C112.905 24.768 112.804 24.8493 112.722 24.9482C112.64 25.047 112.579 25.1613 112.542 25.2842C112.506 25.4071 112.494 25.5361 112.509 25.6635C112.539 25.918 112.666 26.1511 112.864 26.3141C113.062 26.4771 113.316 26.5574 113.573 26.538Z" fill="#191919"/>
<path d="M141.044 25.3133C143.392 25.5082 145.752 25.4891 148.096 25.2563C149.694 25.1898 151.281 24.9656 152.835 24.587C153.092 24.5619 153.329 24.4388 153.497 24.2435C153.664 24.0481 153.75 23.7957 153.736 23.539C153.721 23.2822 153.607 23.041 153.419 22.8658C153.23 22.6905 152.98 22.5948 152.722 22.5987C151.207 22.39 149.677 22.3029 148.147 22.3381C145.654 22.2587 143.166 22.6108 140.794 23.3787C140.66 23.3861 140.529 23.421 140.409 23.4811C140.289 23.5412 140.182 23.6252 140.096 23.728C140.01 23.8309 139.946 23.9502 139.908 24.0787C139.87 24.2073 139.859 24.3422 139.876 24.4751C139.892 24.608 139.936 24.7361 140.005 24.8514C140.073 24.9667 140.164 25.0668 140.273 25.1454C140.382 25.224 140.506 25.2795 140.637 25.3084C140.768 25.3373 140.912 25.3389 141.044 25.3133Z" fill="#191919"/>
<path d="M111.522 38.1229C112.85 38.3573 114.189 38.5247 115.533 38.6244C118.22 38.7304 120.91 38.6869 123.592 38.4942C124.935 38.3655 126.26 38.1229 127.585 37.8998C127.716 37.8933 127.844 37.8612 127.962 37.8053C128.08 37.7493 128.186 37.6707 128.273 37.5738C128.36 37.477 128.428 37.3639 128.471 37.241C128.514 37.1181 128.533 36.988 128.525 36.858C128.518 36.7279 128.484 36.6007 128.427 36.4835C128.37 36.3664 128.291 36.2616 128.193 36.1753C128.095 36.0889 127.981 36.0228 127.857 35.9806C127.734 35.9384 127.603 35.921 127.473 35.9293C123.504 35.6256 119.519 35.588 115.545 35.817C114.462 35.8479 112.03 36.1329 111.571 36.1704C111.311 36.163 111.059 36.2589 110.87 36.437C110.681 36.615 110.57 36.8606 110.563 37.1197C110.556 37.3789 110.652 37.6303 110.83 37.8187C111.009 38.0072 111.262 38.1155 111.522 38.1229Z" fill="#38A1FF"/>
<path d="M137.566 37.0333C139.173 37.284 140.792 37.4514 142.417 37.5349C145.64 37.6222 148.866 37.5352 152.08 37.2743C153.703 37.1262 155.289 36.8656 156.874 36.6425C157.007 36.6406 157.138 36.6122 157.259 36.5588C157.381 36.5055 157.49 36.4283 157.581 36.3319C157.672 36.2355 157.743 36.1219 157.789 35.9977C157.835 35.8736 157.855 35.7415 157.849 35.6093C157.843 35.4771 157.81 35.3476 157.753 35.2283C157.695 35.109 157.614 35.0025 157.514 34.915C157.415 34.8276 157.298 34.761 157.172 34.7193C157.046 34.6776 156.913 34.6615 156.781 34.6721C155.624 34.6167 154.467 34.5418 153.31 34.5239C150.266 34.449 141.219 34.7909 140.83 34.8203C139.766 34.8952 138.706 35.0075 137.621 35.0808C137.361 35.0735 137.109 35.1694 136.92 35.3474C136.731 35.5255 136.62 35.7711 136.613 36.0302C136.606 36.2893 136.702 36.5408 136.88 36.7292C137.059 36.9176 137.306 37.026 137.566 37.0333Z" fill="#38A1FF"/>
<path d="M115.586 53.1828C116.154 53.2365 117.177 53.388 117.937 53.388C118.697 53.388 121.648 53.2251 122.582 53.09C123.383 52.9792 124.13 52.7741 124.914 52.6014C125.172 52.5874 125.415 52.474 125.591 52.2852C125.767 52.0964 125.862 51.8469 125.858 51.5892C125.853 51.3315 125.748 51.0858 125.565 50.9037C125.382 50.7217 125.135 50.6175 124.876 50.6131C122.511 50.166 120.083 50.1533 117.713 50.5756C116.917 50.7297 116.136 50.9537 115.38 51.2449C115.243 51.2453 115.107 51.2745 114.982 51.3304C114.856 51.3863 114.744 51.4679 114.653 51.5697C114.561 51.6715 114.492 51.7913 114.45 51.9215C114.408 52.0516 114.393 52.1891 114.408 52.3251C114.422 52.4611 114.465 52.5926 114.534 52.711C114.603 52.8294 114.695 52.9321 114.807 53.0125C114.918 53.0929 115.044 53.1491 115.178 53.1776C115.313 53.2061 115.451 53.2111 115.586 53.1828Z" fill="#191919"/>
<path d="M107.689 65.9026C108.996 65.9612 110.164 66.0654 112.576 66.0133C114.947 65.9596 119.987 65.5248 122.296 65.1779C123.901 64.9353 125.486 64.564 127.09 64.2285C127.352 64.194 127.59 64.057 127.751 63.8478C127.912 63.6386 127.983 63.3743 127.948 63.113C127.913 62.8517 127.776 62.6149 127.566 62.4545C127.356 62.2942 127.091 62.2235 126.829 62.2581C122.964 62.2898 119.103 62.5192 115.262 62.9453C112.685 63.1314 110.12 63.4669 107.582 63.9501C107.454 63.9585 107.328 63.9922 107.213 64.0491C107.097 64.106 106.994 64.185 106.909 64.2817C106.824 64.3783 106.76 64.4907 106.718 64.6123C106.677 64.734 106.66 64.8625 106.669 64.9906C106.676 65.1173 106.707 65.2414 106.762 65.3558C106.817 65.4703 106.894 65.5728 106.989 65.6575C107.084 65.7422 107.194 65.8075 107.314 65.8495C107.434 65.8916 107.561 65.9096 107.689 65.9026Z" fill="#38A1FF"/>
<path d="M143.168 51.9044C143.798 52.0837 144.44 52.2138 145.09 52.2936C146.387 52.3993 147.69 52.4059 148.988 52.3132C149.655 52.2082 150.315 52.0652 150.966 51.8849C151.099 51.8851 151.231 51.8586 151.354 51.8069C151.478 51.7553 151.589 51.6795 151.682 51.5841C151.775 51.4888 151.848 51.3758 151.897 51.2517C151.946 51.1277 151.969 50.9953 151.965 50.8622C151.961 50.7291 151.931 50.5982 151.875 50.477C151.82 50.3559 151.741 50.2471 151.642 50.1571C151.544 50.067 151.428 49.9976 151.303 49.9528C151.177 49.9081 151.043 49.8889 150.91 49.8965C149.4 49.5098 147.839 49.3593 146.283 49.4503C145.21 49.4257 144.142 49.5956 143.131 49.9519C142.87 49.9616 142.624 50.0715 142.443 50.2585C142.262 50.4456 142.16 50.6952 142.16 50.955C142.17 51.2132 142.282 51.4571 142.47 51.6346C142.658 51.812 142.909 51.9089 143.168 51.9044Z" fill="#191919"/>
<path d="M136.664 64.9125C138.089 64.9451 139.497 65.0346 141.646 64.9874C146.635 64.955 151.611 64.4759 156.515 63.556C156.773 63.5236 157.009 63.3921 157.172 63.1895C157.335 62.9868 157.413 62.7289 157.388 62.4703C157.364 62.2116 157.239 61.9726 157.041 61.8039C156.843 61.6351 156.587 61.5498 156.327 61.566C152.362 61.4616 148.394 61.5861 144.443 61.9389C141.778 62.0849 139.127 62.4327 136.515 62.9795C136.386 62.9855 136.26 63.0176 136.144 63.0739C136.029 63.1302 135.926 63.2096 135.842 63.307C135.758 63.4045 135.695 63.518 135.657 63.6407C135.619 63.7633 135.606 63.8924 135.62 64.0201C135.641 64.2757 135.763 64.5125 135.958 64.6794C136.154 64.8464 136.407 64.9301 136.664 64.9125Z" fill="#38A1FF"/>
<path d="M27.7735 113.473C27.4247 114.517 27.4577 115.65 27.8666 116.671C28.2244 118.003 29.5512 117.956 29.8453 116.616C30.1634 115.573 30.1238 114.455 29.7326 113.437C29.5528 112.927 29.2849 112.46 28.744 112.47C28.2032 112.48 27.9107 112.952 27.7735 113.473Z" fill="#191919"/>
<path d="M51.2845 116.223C58.5687 115.38 67.0555 114.758 79.8085 112.245C80.0729 112.205 80.311 112.063 80.4715 111.85C80.6319 111.637 80.7019 111.369 80.6663 111.105C80.6263 110.848 80.4868 110.616 80.2777 110.46C80.0685 110.303 79.8063 110.234 79.5471 110.268C74.8739 110.644 75.8805 110.423 68.5031 111.218C62.5616 111.737 56.6757 112.763 50.9103 114.286C50.659 114.343 50.4394 114.495 50.2971 114.709C50.1547 114.923 50.1005 115.184 50.1456 115.437C50.1945 115.69 50.3411 115.915 50.554 116.062C50.7669 116.209 51.0292 116.267 51.2845 116.223Z" fill="#191919"/>
<path d="M47.822 130.287C47.9854 130.287 49.6488 130.315 50.3596 130.249C52.8702 130.039 55.3453 129.521 57.7287 128.707C57.9911 128.675 58.2299 128.54 58.3927 128.333C58.5554 128.125 58.6286 127.861 58.5964 127.6C58.5641 127.338 58.4289 127.1 58.2205 126.938C58.0121 126.776 57.7477 126.703 57.4853 126.735C56.6225 126.671 55.7569 126.653 54.8922 126.68C53.1959 126.825 51.5123 127.092 49.8547 127.479C49.0296 127.729 48.22 128.027 47.4299 128.372C47.1782 128.429 46.9584 128.581 46.816 128.796C46.6736 129.01 46.6196 129.271 46.6652 129.525C46.6909 129.651 46.7412 129.77 46.8133 129.876C46.8854 129.983 46.9778 130.074 47.0852 130.145C47.1926 130.215 47.313 130.264 47.4394 130.289C47.5658 130.313 47.6959 130.313 47.822 130.287Z" fill="#191919"/>
<path d="M125.778 108.869C134.522 108.661 142.399 106.975 151.038 105.612C151.167 105.603 151.293 105.568 151.408 105.51C151.524 105.451 151.627 105.37 151.71 105.272C151.794 105.173 151.857 105.059 151.895 104.935C151.934 104.812 151.947 104.682 151.935 104.554C151.913 104.293 151.79 104.051 151.591 103.88C151.392 103.71 151.133 103.624 150.871 103.642C148.799 103.679 146.749 103.735 144.696 103.903C138.276 104.586 131.895 105.598 125.579 106.933C125.442 106.933 125.306 106.962 125.181 107.018C125.055 107.074 124.943 107.155 124.851 107.257C124.759 107.359 124.69 107.479 124.648 107.609C124.605 107.739 124.591 107.876 124.605 108.013C124.62 108.149 124.663 108.28 124.731 108.399C124.8 108.517 124.893 108.62 125.004 108.7C125.115 108.781 125.242 108.837 125.376 108.866C125.51 108.894 125.644 108.898 125.778 108.869Z" fill="#38A1FF"/>
<path d="M117.334 123.605C126.327 122.461 135.256 120.86 144.085 118.808C144.343 118.762 144.572 118.617 144.722 118.403C144.873 118.189 144.932 117.925 144.887 117.668C144.84 117.408 144.693 117.177 144.476 117.025C144.26 116.873 143.992 116.811 143.731 116.854C138.144 117.478 138.883 117.24 133.358 118.119C127.779 118.825 122.273 120.02 116.904 121.689C116.649 121.745 116.427 121.901 116.287 122.121C116.147 122.341 116.101 122.607 116.158 122.861C116.214 123.115 116.37 123.337 116.591 123.476C116.812 123.616 117.079 123.662 117.334 123.605Z" fill="#38A1FF"/>
<path d="M134.924 130.14C138.175 129.939 141.41 129.522 144.606 128.895C146.769 128.571 148.907 128.1 151.005 127.483C151.259 127.436 151.485 127.294 151.636 127.085C151.788 126.877 151.852 126.618 151.816 126.363C151.78 126.108 151.646 125.877 151.443 125.718C151.24 125.559 150.983 125.485 150.726 125.511C147.979 125.535 145.24 125.79 142.536 126.273C139.796 126.62 137.105 127.275 134.513 128.227C134.259 128.281 134.036 128.434 133.894 128.652C133.752 128.87 133.703 129.135 133.758 129.389C133.812 129.643 133.965 129.865 134.184 130.006C134.403 130.147 134.669 130.195 134.924 130.14Z" fill="#38A1FF"/>
<path d="M245.546 23.3331C246.329 23.4868 247.12 23.5955 247.915 23.6588C249.515 23.7196 251.116 23.6701 252.709 23.5106C253.521 23.3764 254.324 23.1964 255.116 22.9716C255.38 22.9484 255.625 22.8218 255.796 22.6195C255.967 22.4172 256.051 22.1556 256.029 21.8919C256.019 21.7619 255.982 21.6354 255.922 21.5197C255.861 21.404 255.778 21.3016 255.677 21.2184C255.576 21.1352 255.46 21.073 255.335 21.0354C255.209 20.9978 255.078 20.9856 254.948 20.9995C253.075 20.6754 251.169 20.5944 249.276 20.7585C247.978 20.7742 246.69 20.9811 245.453 21.3725C245.323 21.3768 245.196 21.4069 245.079 21.461C244.962 21.5151 244.856 21.5921 244.769 21.6874C244.682 21.7828 244.616 21.8945 244.573 22.0161C244.53 22.1376 244.512 22.2665 244.52 22.3951C244.525 22.524 244.555 22.6507 244.61 22.7678C244.664 22.8848 244.741 22.99 244.837 23.0772C244.932 23.1644 245.044 23.2319 245.166 23.2758C245.287 23.3198 245.416 23.3392 245.546 23.3331Z" fill="#191919"/>
<path d="M245.583 33.1738C246.786 33.5099 248.064 33.4644 249.24 33.0435C250.547 32.7292 250.556 31.3385 249.183 31.0731C247.967 30.7846 246.694 30.841 245.508 31.2359C244.99 31.3988 244.557 31.6821 244.575 32.2407C244.593 32.7992 245.054 33.0582 245.583 33.1738Z" fill="#38A1FF"/>
<path d="M244.051 44.4835C246.576 44.7075 249.116 44.7194 251.644 44.5193C253.353 44.4708 255.055 44.2906 256.737 43.9803C257.002 43.9718 257.253 43.8599 257.437 43.6686C257.62 43.4774 257.721 43.2221 257.717 42.9576C257.711 42.697 257.601 42.4494 257.413 42.2686C257.224 42.0878 256.972 41.9884 256.71 41.9919C254.584 41.641 252.426 41.5225 250.274 41.6385C248.095 41.6189 245.926 41.9257 243.838 42.5489C243.702 42.5502 243.567 42.5799 243.442 42.6362C243.318 42.6924 243.207 42.774 243.116 42.8756C243.025 42.9772 242.956 43.0967 242.914 43.2262C242.873 43.3558 242.858 43.4927 242.873 43.6281C242.887 43.7635 242.929 43.8945 242.997 44.0125C243.065 44.1306 243.158 44.2332 243.268 44.3137C243.378 44.3942 243.504 44.4509 243.637 44.4802C243.77 44.5094 243.917 44.5105 244.051 44.4835Z" fill="#38A1FF"/>
<path d="M227.365 134.662C228.155 135.094 229.069 135.244 229.956 135.089C231.2 134.709 232.28 133.923 233.021 132.857C233.762 131.791 234.121 130.508 234.041 129.214C234.064 129.085 234.062 128.953 234.033 128.826C234.004 128.698 233.95 128.578 233.874 128.472C233.798 128.365 233.701 128.275 233.589 128.207C233.478 128.139 233.354 128.093 233.224 128.074C232.965 128.031 232.699 128.09 232.483 128.239C232.267 128.389 232.118 128.616 232.067 128.873C231.569 129.854 230.955 130.772 230.237 131.606C229.896 131.992 229.467 132.291 228.987 132.48C228.659 132.657 228.296 132.758 227.923 132.777C227.671 132.707 227.401 132.738 227.171 132.863C226.941 132.988 226.769 133.197 226.691 133.446C226.655 133.57 226.643 133.7 226.657 133.828C226.671 133.957 226.711 134.081 226.773 134.194C226.836 134.307 226.92 134.407 227.022 134.487C227.123 134.568 227.24 134.627 227.365 134.662Z" fill="#191919"/>
<path d="M231.917 113.455C232.57 114.432 231.917 116.02 230.446 116.987C228.976 117.955 227.275 117.955 226.623 116.987C225.971 116.02 226.623 114.44 228.077 113.455C229.531 112.47 231.268 112.485 231.917 113.455Z" fill="#191919"/>
<path d="M184.169 130.803C185.292 132.139 186.227 133.622 186.947 135.21C188.454 138.351 189.177 141.809 189.055 145.288C189.069 147.062 188.894 148.831 188.532 150.568C188.493 150.693 188.48 150.826 188.493 150.957C188.505 151.087 188.544 151.215 188.607 151.33C188.669 151.446 188.754 151.549 188.856 151.632C188.959 151.715 189.077 151.776 189.204 151.813C189.329 151.852 189.46 151.865 189.59 151.852C189.72 151.839 189.846 151.8 189.961 151.737C190.076 151.675 190.177 151.59 190.259 151.489C190.34 151.387 190.4 151.27 190.436 151.144C191.169 149.315 191.646 147.395 191.854 145.436C192.196 141.442 191.36 137.435 189.447 133.909C188.443 132.166 187.112 130.632 185.526 129.391C185.433 129.302 185.323 129.233 185.203 129.186C185.083 129.14 184.955 129.117 184.826 129.12C184.697 129.123 184.57 129.151 184.453 129.203C184.335 129.254 184.228 129.329 184.139 129.421C184.05 129.514 183.98 129.623 183.934 129.743C183.887 129.863 183.864 129.99 183.867 130.118C183.87 130.247 183.898 130.373 183.95 130.491C184.002 130.608 184.076 130.714 184.169 130.803Z" fill="#191919"/>
<path d="M191.838 133.102C192.164 133.591 192.837 135.092 192.939 135.296C193.646 136.771 194.172 138.325 194.506 139.926C194.712 140.781 194.973 141.598 195.102 142.417C195.105 142.681 195.212 142.933 195.401 143.118C195.591 143.303 195.846 143.405 196.11 143.402C196.375 143.4 196.628 143.292 196.813 143.104C196.999 142.916 197.101 142.661 197.099 142.398C197.247 141.438 197.302 140.467 197.262 139.497C197.064 137.509 196.42 135.59 195.378 133.882C194.812 133.043 194.091 132.317 193.254 131.744C193.073 131.556 192.824 131.447 192.563 131.44C192.301 131.433 192.047 131.529 191.855 131.707C191.761 131.797 191.686 131.904 191.634 132.023C191.582 132.143 191.554 132.271 191.552 132.401C191.551 132.531 191.575 132.66 191.624 132.78C191.673 132.901 191.746 133.01 191.838 133.102Z" fill="#191919"/>
<path d="M198.814 133.41C198.877 133.64 199.113 135.057 199.189 135.381C199.319 136.014 199.468 136.646 199.579 137.296C199.69 137.945 199.729 138.616 199.841 139.268C199.934 139.992 200.122 140.644 200.195 141.331C200.178 141.595 200.266 141.855 200.441 142.054C200.616 142.252 200.863 142.374 201.128 142.391C201.393 142.408 201.654 142.32 201.853 142.146C202.053 141.971 202.175 141.725 202.192 141.461C202.408 140.716 202.558 139.953 202.64 139.181C202.681 137.597 202.422 136.02 201.875 134.532C201.53 133.792 201.084 133.104 200.55 132.487C200.488 132.373 200.405 132.273 200.305 132.191C200.205 132.11 200.09 132.049 199.966 132.012C199.842 131.974 199.712 131.962 199.583 131.975C199.454 131.988 199.33 132.026 199.216 132.087C199.102 132.148 199.001 132.231 198.919 132.331C198.837 132.431 198.776 132.546 198.739 132.669C198.701 132.793 198.689 132.922 198.702 133.05C198.715 133.179 198.753 133.297 198.814 133.41Z" fill="#191919"/>
<path d="M208.113 149.978C211.097 151.789 215.077 153.743 218.734 156.412C218.954 156.554 219.109 156.777 219.165 157.032C219.221 157.287 219.174 157.553 219.034 157.774C218.893 157.994 218.672 158.151 218.416 158.209C218.161 158.267 217.893 158.222 217.671 158.085C214.154 156.152 210.452 154.883 205.694 151.913C205.431 151.752 205.226 151.512 205.109 151.228C204.992 150.944 204.967 150.63 205.04 150.332C206.059 144.871 205.823 139.252 204.35 133.896C204.309 133.774 204.292 133.644 204.3 133.516C204.309 133.387 204.342 133.261 204.4 133.146C204.457 133.03 204.536 132.927 204.634 132.842C204.731 132.756 204.844 132.691 204.966 132.65C205.089 132.608 205.219 132.591 205.348 132.6C205.477 132.608 205.603 132.642 205.719 132.699C205.835 132.756 205.939 132.835 206.024 132.932C206.109 133.029 206.175 133.142 206.216 133.264C208.532 138.515 209.193 144.344 208.113 149.978Z" fill="#191919"/>
<path d="M194.561 159.902C185.762 162.747 176.79 156.736 176.13 148.503C176.024 147.559 176.068 146.605 176.261 145.676C176.306 145.418 176.452 145.188 176.666 145.036C176.88 144.883 177.145 144.821 177.405 144.861C177.659 144.913 177.884 145.06 178.033 145.272C178.183 145.484 178.245 145.745 178.207 146.001C178.138 146.729 178.182 147.463 178.338 148.177C178.706 149.855 179.429 151.435 180.459 152.813C181.488 154.19 182.801 155.333 184.308 156.165C185.816 156.997 187.484 157.5 189.202 157.638C190.92 157.777 192.648 157.55 194.27 156.971C194.49 156.886 194.728 156.856 194.962 156.885C195.197 156.913 195.42 156.999 195.613 157.134C199.172 159.775 200.584 160.597 205.631 164.701C205.738 164.778 205.828 164.876 205.896 164.988C205.964 165.101 206.009 165.226 206.028 165.356C206.048 165.486 206.04 165.618 206.007 165.746C205.974 165.873 205.916 165.992 205.836 166.097C205.678 166.303 205.445 166.44 205.188 166.478C204.93 166.516 204.668 166.452 204.456 166.3C201.157 164.077 197.785 162.165 194.561 159.902Z" fill="#191919"/>
<path d="M183.821 142.191C181.861 137.468 182.862 138.164 182.068 137.748C181.078 137.229 168.385 130.479 163.895 127.711C165.987 123.496 167.044 118.846 166.981 114.144C166.918 109.443 165.736 104.823 163.532 100.665H163.55C161.828 97.117 159.417 93.9442 156.457 91.3301C153.497 88.7159 150.046 86.7122 146.305 85.4347C142.563 84.1572 138.605 83.6312 134.658 83.8872C130.711 84.1431 126.855 85.1759 123.311 86.9259C119.228 88.9434 115.653 91.8501 112.85 95.4307C110.047 99.0114 108.088 103.174 107.118 107.612C106.147 112.049 106.191 116.647 107.244 121.066C108.298 125.484 110.335 129.61 113.205 133.137C116.074 136.665 119.703 139.505 123.823 141.446C127.943 143.387 132.448 144.38 137.004 144.351C141.561 144.322 146.053 143.273 150.148 141.28C154.242 139.287 157.835 136.402 160.66 132.839C162.521 133.902 164.56 134.729 166.341 135.739C171.506 138.667 176.831 141.305 182.292 143.64C182.498 143.731 182.727 143.758 182.949 143.72C183.171 143.681 183.377 143.578 183.541 143.423C183.704 143.268 183.818 143.068 183.868 142.849C183.918 142.63 183.902 142.401 183.821 142.191ZM148.57 136.923C142.48 139.877 135.468 140.322 129.051 138.162C122.634 136.002 117.328 131.411 114.283 125.382C111.237 119.352 110.696 112.37 112.777 105.946C114.857 99.5224 119.393 94.1736 125.401 91.0573C131.549 87.9122 138.695 87.311 145.285 89.3842C151.876 91.4574 157.38 96.0377 160.603 102.131H160.622C163.601 108.345 164.006 115.478 161.751 121.988C159.496 128.498 154.761 133.864 148.57 136.923Z" fill="#191919"/>
<path d="M266.705 106.528C266.365 105.181 265.749 103.919 264.895 102.821C264.041 101.723 262.968 100.814 261.743 100.151C263.011 97.5359 263.284 94.5517 262.512 91.7515C261.74 88.9513 259.976 86.5251 257.545 84.9229C250.946 80.4121 240.226 81.1286 234.376 75.9241C232.709 74.4422 231.383 72.7079 228.928 72.7079C228.463 72.699 228.001 72.7873 227.571 72.9669C227.142 73.1464 226.755 73.4134 226.436 73.7507C226.116 74.0881 225.871 74.4882 225.715 74.9256C225.56 75.3629 225.498 75.8278 225.533 76.2905C224.197 75.7264 222.695 75.6927 221.335 76.196C219.361 77.2985 220.232 79.6777 220.646 80.6222C219.956 80.6165 219.288 80.8614 218.766 81.3109C218.245 81.7604 217.905 82.3839 217.811 83.0649C217.378 85.2193 218.819 88.499 219.75 90.5036C222.59 96.5811 226.629 103.334 232.94 105.648C232.94 106.239 232.971 106.835 233.015 107.44C230.317 104.981 224.332 107.686 225.319 109.513C225.888 110.524 227.314 109.755 229.497 109.438C231.235 109.185 232.539 109.503 233.178 109.071C233.562 112.189 234.438 115.227 235.775 118.072C235.924 118.373 236.171 118.615 236.477 118.757C236.782 118.899 237.127 118.933 237.454 118.853C240.572 118.095 244.48 120.853 242.846 124.115C242.32 124.802 241.654 125.37 240.892 125.784C240.13 126.197 239.29 126.446 238.425 126.514C238.081 126.572 237.77 126.752 237.55 127.022C237.331 127.292 237.217 127.632 237.23 127.979C237.266 130.625 237.882 133.232 239.036 135.615C240.189 137.998 241.853 140.101 243.908 141.776C244.148 141.966 244.445 142.073 244.751 142.079C245.058 142.086 245.358 141.992 245.606 141.811C249.691 138.853 252.773 134.777 255.9 130.99C260.428 125.529 269.611 116.855 266.705 106.528Z" fill="#191919"/>
<path d="M310.711 209.267C309.582 203.884 307.861 198.642 305.581 193.634C299.476 179.11 290.323 166.097 275.789 159.599C269.508 156.816 263.581 156.707 257.094 155.564C257.496 149.591 257.911 149.413 257.225 148.573C257.086 148.424 256.919 148.305 256.733 148.221C256.548 148.137 256.347 148.091 256.144 148.084C252.147 148.014 248.15 148.171 244.171 148.553C244.232 146.387 244.072 144.22 243.696 142.085C243.686 141.824 243.572 141.577 243.38 141.399C243.187 141.222 242.932 141.127 242.67 141.137C242.408 141.147 242.16 141.261 241.982 141.452C241.804 141.644 241.709 141.899 241.719 142.16C241.479 144.36 241.564 146.584 241.971 148.76C239.394 149.022 236.482 149.385 232.77 149.962C232.77 149.449 232.786 145.103 232.706 143.955C232.679 143.653 232.54 143.373 232.315 143.17C232.09 142.967 231.797 142.856 231.494 142.859C225.008 142.771 223.93 133.772 223.714 127.315C223.701 126.996 223.585 126.69 223.383 126.442C223.182 126.194 222.905 126.018 222.595 125.939L219.164 125.066C221.199 118.34 223.584 111.724 226.309 105.244C226.363 105.127 226.393 105 226.397 104.871C226.401 104.742 226.38 104.613 226.335 104.492C226.289 104.371 226.22 104.26 226.132 104.166C226.043 104.071 225.937 103.995 225.819 103.942C225.701 103.888 225.573 103.858 225.444 103.854C225.314 103.85 225.185 103.871 225.064 103.916C224.942 103.962 224.831 104.03 224.736 104.118C224.642 104.207 224.565 104.313 224.512 104.43C221.543 110.737 218.683 115.598 215.95 125.763C215.899 125.952 215.887 126.148 215.914 126.342C215.941 126.535 216.007 126.721 216.108 126.888C216.209 127.055 216.343 127.2 216.502 127.315C216.66 127.429 216.841 127.511 217.031 127.554L220.819 128.531C221.196 135.899 223.02 144.679 230.427 145.228C230.476 145.736 230.655 148.9 230.735 150.294C228.19 150.711 225.636 151.167 223.056 151.644C222.735 151.708 222.443 151.875 222.228 152.12C222.012 152.365 221.883 152.675 221.861 153.001C221.709 155.574 221.453 157.176 221.34 160.197C197.087 169.38 179.171 194.119 177.877 219.842C177.867 220.102 177.959 220.356 178.133 220.55C178.307 220.744 178.55 220.863 178.81 220.883C178.94 220.891 179.07 220.874 179.193 220.832C179.317 220.79 179.43 220.723 179.527 220.637C179.625 220.551 179.704 220.446 179.76 220.329C179.816 220.211 179.848 220.084 179.854 219.955C181.833 190.615 206.991 164.188 229.363 161.576C230.762 161.413 247.085 159.567 249.193 159.288C275.807 155.888 292.837 170.34 303.468 194.556C305.775 199.381 307.545 204.444 308.747 209.653C308.794 209.912 308.943 210.141 309.16 210.291C309.377 210.441 309.644 210.499 309.904 210.453C310.168 210.4 310.4 210.246 310.551 210.025C310.702 209.803 310.76 209.531 310.711 209.267ZM235.766 157.842C231.889 158.263 228.051 158.987 224.288 160.006C224.365 158.215 224.615 155.626 224.727 154.307C234.546 152.323 244.523 151.215 254.539 150.998C254.4 152.72 254.305 154.399 254.039 156.371C251.016 156.521 244.423 156.684 235.766 157.842Z" fill="#191919"/>
<path d="M219.159 208.143C219.123 208.694 219.084 211.982 219.084 212.531C219.084 214.136 218.94 218.461 220.446 218.461C221.775 218.461 221.835 215.625 222.013 212.773C222.096 211.044 222.065 209.31 221.92 207.585C221.652 205.579 221.458 204.11 220.353 204.183C219.412 204.255 219.388 205.088 219.159 208.143Z" fill="#191919"/>
<path d="M285.957 203.693C286.12 204.448 286.668 206.889 286.908 207.634C287.473 209.671 287.831 211.207 288.922 211.018C290.081 210.819 289.862 209.151 289.614 206.964C289.309 205.083 288.898 203.221 288.382 201.387C287.537 198.858 287.094 197.762 286.125 198.003C284.733 198.301 285.499 201.467 285.957 203.693Z" fill="#191919"/>
</svg>
